# xmcd CD database file
#
# Track frame offsets:
#	150
#	16562
#	38495
#	58658
#	77392
#	94376
#	115177
#	133231
#	152037
#	173918
#	195900
#	219366
#	243249
#	266749
#	290139
#	316103
#	339818
#
# Disc length: 4706 seconds
#
# Revision: 0
# Processed by: cddbd v1.5.2PL0 Copyright (c) Steve Scherf et al.
# Submitted via: CDex 1.51
#
DISCID=dc126011
DTITLE=Eoin Colfer - Artemis Fowl 7 - Der Atlantis-Komplex
DYEAR=2011
DGENRE=Hörbuch
TTITLE0=Der Atlantis-Komplex CD 5_01
TTITLE1=Der Atlantis-Komplex CD 5_02
TTITLE2=Der Atlantis-Komplex CD 5_03
TTITLE3=Der Atlantis-Komplex CD 5_04
TTITLE4=Der Atlantis-Komplex CD 5_05
TTITLE5=Der Atlantis-Komplex CD 5_06
TTITLE6=Der Atlantis-Komplex CD 5_07
TTITLE7=Der Atlantis-Komplex CD 5_08
TTITLE8=Der Atlantis-Komplex CD 5_09
TTITLE9=Der Atlantis-Komplex CD 5_10
TTITLE10=Der Atlantis-Komplex CD 5_11
TTITLE11=Der Atlantis-Komplex CD 5_12
TTITLE12=Der Atlantis-Komplex CD 5_13
TTITLE13=Der Atlantis-Komplex CD 5_14
TTITLE14=Der Atlantis-Komplex CD 5_15
TTITLE15=Der Atlantis-Komplex CD 5_16
TTITLE16=Der Atlantis-Komplex CD 5_17
EXTD=YEAR: 2011
EXTT0=
EXTT1=
EXTT2=
EXTT3=
EXTT4=
EXTT5=
EXTT6=
EXTT7=
EXTT8=
EXTT9=
EXTT10=
EXTT11=
EXTT12=
EXTT13=
EXTT14=
EXTT15=
EXTT16=
PLAYORDER=
